<?xml version="1.0" encoding="UTF-8"?><svg id="Layer_2" xmlns="http://www.w3.org/2000/svg" viewBox="0 0 609.39 228.38"><defs><style>.cls-1,.cls-2,.cls-3{fill:#fff;}.cls-4{stroke-dasharray:0 0 1 15;stroke-linecap:round;stroke-width:5px;}.cls-4,.cls-3{stroke:#fff;stroke-miterlimit:10;}.cls-4,.cls-5{fill:none;}.cls-2,.cls-5{fill-rule:evenodd;}.cls-6{fill:#ef1b1b;}.cls-3{stroke-width:2px;}</style></defs><g id="Layer_1-2"><g><path class="cls-6" d="M609.39,41.09V193.87c0,17.17-13.92,31.09-31.09,31.09H39.11c2.23-1.31,4.31-2.99,6.12-4.99,2.16-2.37,3.91-5.24,4.95-8.47,1.09-3.21,1.37-6.6,1.17-9.91-.44-6.65-2.87-12.59-5.55-17.72-2.69-5.16-5.63-9.71-7.94-14.14-2.32-4.42-4.04-8.73-4.74-12.89-.71-4.11-.36-8.1,.82-11.36,1.18-3.3,3.16-5.81,5.44-7.34,2.28-1.58,4.7-2.27,6.68-2.47,2.28-.2,3.96,.15,5.04,.41,.45,.19,.49,.59-.11,1.85,0,.02-.02,.04-.03,.06-.44,.8-1.07,2.25-2.07,4.07-.79,1.42-1.82,3.07-3.18,4.72-.67,.83-1.44,1.67-2.28,2.47-.76,.8-1.94,1.66-3,2.54-1.19,.89-2.39,1.79-3.61,2.71,1.48,.08,2.99,.16,4.52,.24,1.27,.1,2.71,.03,4.11-.03,.17,0,.37,0,.5-.03l.29-.04,.56-.07c.37-.04,.74-.1,1.1-.17,1.45-.24,2.81-.64,4.09-1.06,2.54-.89,4.68-2.06,6.32-3.23,1.84-1.32,3.07-2.58,3.75-3.48l1.41-.88-2.25-5.54s.08,.05,.11,.05h.01c.54-.06,.04-2.63,2.13-6.11,1.02-1.73,2.73-3.61,5.09-5.24,2.32-1.63,5.47-2.89,9.14-4.17,3.63-1.32,8.03-2.64,12.25-5.63,4.19-2.87,7.83-7.09,10.35-12.18,2.51-5.09,3.9-11.18,3.2-17.49-.67-6.29-3.43-12.47-7.75-17.45-.44-.51-.89-.99-1.36-1.47,.12,.12,.24,.23,.35,.35,1.02-1.83,1.48-3.51,1.71-4.49-.19,1.09-.5,1.97-.79,2.64-.45,1.03-.74,1.63-.55,1.79,.14,.14,.75-.17,1.64-1.1,.88-.92,1.9-2.64,2.38-5.09,.46-2.43,.28-5.61-1.1-8.89-.2-.49-.44-.99-.7-1.48,.26-.38,.55-.87,.83-1.48,.81-1.82,1.6-4.77,1.14-8.48-.42-3.66-2.42-8.11-6.35-11.29-1.94-1.6-4.31-2.88-6.99-3.61-2.69-.71-5.61-.8-8.42-.31-5.65,1.01-10.18,3.72-13.96,6.25-3.47,2.41-6.34,4.66-8.91,6.44,.53-1.38,.9-2.91,1.02-4.5,.2-2.53-.12-5.17-.73-7.73-.6-2.56-1.46-5.06-2.28-7.54-.41-1.24-.8-2.48-1.15-3.7-.18-.62-.3-1.22-.46-1.84-.09-.33-.11-.58-.18-.94l-.19-1.01-.1-1.09c-.08-.37,0-.93,.04-1.45l.14-1.57,.03-.4H578.31c17.17,0,31.09,13.92,31.09,31.09Z"/><path class="cls-4" d="M54.95,218.01c.72-1.4,1.33-2.86,1.81-4.34,1.28-3.79,1.79-7.99,1.51-12.51-.57-8.61-3.88-15.83-6.32-20.51-1.47-2.83-2.98-5.41-4.43-7.91-1.27-2.19-2.48-4.25-3.51-6.23-.9-1.71-1.65-3.31-2.26-4.82,.32,.01,.66,.02,1.01,.02,.88,0,1.73-.03,2.54-.07l.41-.02c.31,0,.73-.02,1.23-.1l.2-.03,.46-.06c.5-.06,1-.13,1.49-.22,1.98-.33,3.74-.87,5.05-1.31l.11-.04c2.9-1.02,5.69-2.44,8.05-4.13,1.71-1.24,3.19-2.54,4.35-3.84l5.41-3.39-3.49-8.56c.12-.68,.28-1.37,.81-2.25,.31-.52,1.17-1.77,3.09-3.1,1.77-1.24,4.77-2.38,7.49-3.33l.07-.03c.46-.17,.94-.33,1.42-.51,3.56-1.26,7.99-2.82,12.43-5.95,5.23-3.6,9.59-8.71,12.6-14.8,3.34-6.76,4.68-14.13,3.89-21.33-.65-6.05-2.88-12.05-6.39-17.3,.88-1.62,1.55-3.47,1.93-5.44,.7-3.7,.35-7.72-.97-11.5,.87-2.35,1.82-6.2,1.22-10.99-.7-5.99-4.01-11.91-8.87-15.85-2.73-2.25-6.04-3.96-9.54-4.91-2.16-.57-4.39-.86-6.67-.86-1.59,0-3.19,.14-4.76,.42-5.82,1.04-10.59,3.47-14.57,5.98-.02-.09-.04-.19-.07-.29-.59-2.53-1.38-4.92-2.15-7.24l-.29-.87c-.34-1.04-.64-1.99-.91-2.88H578.31c13.32,0,24.15,10.84,24.15,24.16V193.87c0,13.32-10.83,24.15-24.15,24.15H54.95Z"/><g><path class="cls-3" d="M212.79,81.22h-10.94l-2.99,43.52c-.23,3.22,.54,5.87,2.3,7.94-2.38-.92-4.45-2.15-6.22-3.68-2.46-2.07-3.61-4.07-3.45-5.99l1.61-18.77h-6.25c-1.93,0-4.09,.35-6.48,1.03-.46,6.12-1.97,11.81-4.51,17.09-3.32,6.88-7.56,10.32-12.73,10.32-3.4,0-6.6-1.28-9.61-3.85-3.01-2.57-4.55-5.49-4.63-8.79-.08-5.36,2.69-9.99,8.29-13.9,4.61-3.22,9.9-5.36,15.89-6.43,0-9.04-.42-15.2-1.27-18.5h-22.22l.23-5.18h63.21l-.23,5.18Zm-58.38,41.13c0,1.6,.65,2.88,1.96,3.84,1.3,.95,2.76,1.47,4.38,1.54,3.53,.08,6.41-2.67,8.64-8.24,1.53-3.82,2.61-8.13,3.22-12.94-4.84,.92-8.87,2.56-12.09,4.92-4.07,2.98-6.1,6.6-6.1,10.88Zm20.73-41.13c3.53,1.92,5.3,3.76,5.3,5.53l.23,13.01c2.84-.46,5.22-.69,7.14-.69h5.3l1.38-17.85h-19.34Z"/><path class="cls-3" d="M266.22,81.22h-14.51c1.76,2.61,2.65,5.03,2.65,7.25,0,3.53-3.38,5.37-10.13,5.53-1.61,0-4.42-.15-8.41-.46l-8.29-.69c-1.15-.08-2.25,.33-3.28,1.21-1.04,.88-1.55,1.9-1.55,3.05,0,2.23,1.42,4.26,4.26,6.1,3.61-1.46,8.02-2.26,13.24-2.42,4.61-.08,8.67,1.08,12.21,3.45,3.99,2.69,5.99,6.26,5.99,10.71,0,3.68-1.77,6.64-5.3,8.87-3.07,1.92-6.56,2.88-10.48,2.88-1.84-1.07-3.45-3.53-4.84-7.37,1.69,.31,3.65,.46,5.87,.46,7.6,.15,11.51-2.23,11.74-7.14,.23-4.68-4.26-7.06-13.47-7.14-5.53-.08-10.52,1.11-14.97,3.57-5.45,2.99-8.21,7.06-8.29,12.21-.08,4.61,3.11,8.41,9.56,11.4,5.07,2.38,10.21,3.65,15.43,3.8,2.3,.08,4.49-.23,6.56-.92-.23,2.23-1.46,3.34-3.68,3.34-7.68,.08-14.93-1.38-21.76-4.38-8.67-3.76-13.05-8.94-13.13-15.54-.08-5.83,4.3-10.82,13.13-14.97-5.6-2.69-8.44-6.14-8.52-10.36,0-1.76,1-3.34,2.99-4.72,1.76-1.3,3.57-1.96,5.41-1.96,2,0,4.97,.19,8.92,.58,3.95,.38,6.93,.58,8.92,.58,5.53,.08,8.29-1.53,8.29-4.84,.08-.38-.12-1.07-.58-2.07h-39.26l.23-5.18h55.27l-.23,5.18Z"/><path class="cls-3" d="M290.86,81.22h-12.09l-2.88,41.22c-.39,5.14,1.11,8.91,4.49,11.28-2.07-.38-4.45-1.77-7.14-4.15-3.22-2.84-4.76-5.41-4.61-7.71l2.88-40.64h-7.37v-5.18h26.71v5.18Z"/><path class="cls-3" d="M333.8,138.33c-8.98,0-17.35-3.19-25.1-9.56-6.76-5.53-12.28-12.78-16.58-21.76l7.02-4.84,1.61,2.53c1.53,2.38,4.49,3.57,8.87,3.57,5.37,0,10.13-2.05,14.28-6.16,4.15-4.11,6.22-8.85,6.22-14.22,0-3.45-1.11-6.2-3.34-8.23-2.23-2.03-5.07-3.05-8.52-3.05-5.37,0-10.34,1.34-14.91,4.03-4.57,2.69-8.04,6.41-10.42,11.17l-3.45-9.56c5.68-5.68,15.08-8.52,28.21-8.52,5.3,0,9.75,1.11,13.36,3.34,4.3,2.61,6.49,6.41,6.56,11.4,.08,6.83-2.53,12.4-7.83,16.7-4.84,3.99-10.79,6.03-17.85,6.1-4.53,.08-7.87-.5-10.02-1.73,10.52,18.12,21.34,27.1,32.47,26.94,1.3,0,2.23-.12,2.76-.35l.81,2.19h-4.15Z"/><path class="cls-3" d="M368.23,81.22h-12.09l-2.88,41.22c-.39,5.14,1.11,8.91,4.49,11.28-2.07-.38-4.45-1.77-7.14-4.15-3.22-2.84-4.76-5.41-4.61-7.71l2.88-40.64h-7.37v-5.18h26.71v5.18Z"/><path class="cls-3" d="M407.26,81.22h-20.38c-1.77,0-3.61,1.46-5.53,4.38l18.19,22.22c2.46-1.84,4.45-4.34,5.99-7.48l-.46,10.48c-4.68,5.6-10.36,8.41-17.04,8.41-5.37,0-9.83-1.84-13.36-5.53-3.53-3.68-5.3-8.25-5.3-13.7s1.96-11.93,5.87-18.77h-8.64l.23-5.18h40.64l-.23,5.18Zm-27.31,7.39c-3.59,5.14-5.39,10.85-5.39,17.14,0,2.23,.9,4.07,2.7,5.52s3.85,2.19,6.16,2.19c4.99,.08,9.55-1.34,13.69-4.25l-17.16-20.6Z"/><path class="cls-3" d="M462.53,81.22h-8.75c.92,1.23,1.42,3.26,1.5,6.1,.08,3.68-3.08,6.53-9.47,8.52-2.23,.69-6.89,1.38-13.97,2.07-13.62,1.31-20.43,6.22-20.43,14.74,0,9.29,5.66,13.97,16.97,14.05,4.85,.08,9.31-.88,13.39-2.88,5-2.38,7.73-5.72,8.2-10.02,2,4.3,3,7.56,3,9.79,0,2.92-3.07,5.34-9.21,7.25-4.68,1.46-9.02,2.19-13.01,2.19-6.6,0-12.22-2.15-16.87-6.45-4.65-4.3-7.01-9.71-7.08-16.23-.08-6.45,2.61-11.4,8.06-14.85,4.53-2.92,10.21-4.41,17.04-4.49,4.45-.07,8.29-.69,11.51-1.84,4.61-1.69,7.02-4.34,7.25-7.94h-45.25l.23-5.18h57.11l-.23,5.18Z"/><path class="cls-3" d="M464.66,152.54l-16.23-14.38-19.54,14.43-3.56-4.25,19.8-14.62h4.38l17.62,15.77-2.47,3.04Z"/><path class="cls-3" d="M491.2,81.22h-12.09l-2.88,41.22c-.39,5.14,1.11,8.91,4.49,11.28-2.07-.38-4.45-1.77-7.14-4.15-3.22-2.84-4.76-5.41-4.61-7.71l2.88-40.64h-7.37v-5.18h26.71v5.18Z"/><path class="cls-3" d="M555.21,81.22h-11.05l-3.11,44.1c-.15,2.69,1.07,5.26,3.68,7.71-2.23-.31-4.68-1.5-7.37-3.57-2.92-2.3-4.3-4.45-4.14-6.45l.58-7.25c-4.45,5.3-9.75,8.02-15.89,8.17-3.3,.08-6.66-1.71-10.07-5.35-3.42-3.64-5.16-7.16-5.24-10.54-.08-3.99,3.53-7.75,10.82-11.28-2.07,0-8.64,.42-19.69,1.27-2,.15-3.07-2.46-3.22-7.83-.08-1.61,.23-2.46,.92-2.53,.08,0,.84,.36,2.3,1.09,1.46,.73,2.8,1.09,4.03,1.09h32.58l1.61,6.91h-3.68c-3.84,0-7.94,1.58-12.32,4.75-4.61,3.4-6.91,6.95-6.91,10.65s2.19,5.44,6.56,5.44,8.75-1.71,12.67-5.14c3.92-3.43,6.1-7.37,6.56-11.84l1.84-19.41h-47.09l.23-5.18h65.63l-.23,5.18Z"/><path class="cls-3" d="M579.85,81.22h-12.09l-2.88,41.22c-.39,5.14,1.11,8.91,4.49,11.28-2.07-.38-4.45-1.77-7.14-4.15-3.22-2.84-4.76-5.41-4.61-7.71l2.88-40.64h-7.37v-5.18h26.71v5.18Z"/></g><g><path class="cls-1" d="M337.21,169.04h-7.5l-2.05,29.86c-.16,2.21,.37,4.03,1.58,5.45-1.63-.63-3.05-1.47-4.27-2.53-1.69-1.42-2.48-2.79-2.37-4.11l1.11-12.87h-4.29c-1.32,0-2.81,.24-4.45,.71-.32,4.2-1.35,8.1-3.1,11.72-2.28,4.72-5.19,7.08-8.73,7.08-2.33,0-4.53-.88-6.59-2.64-2.06-1.76-3.12-3.77-3.18-6.03-.05-3.68,1.84-6.86,5.69-9.54,3.16-2.21,6.79-3.68,10.9-4.41,0-6.2-.29-10.43-.87-12.69h-15.24l.16-3.55h43.36l-.16,3.55Zm-40.05,28.22c0,1.1,.45,1.98,1.34,2.63,.89,.65,1.9,1.01,3,1.06,2.42,.05,4.4-1.83,5.92-5.66,1.05-2.62,1.79-5.58,2.21-8.88-3.32,.63-6.08,1.75-8.29,3.38-2.79,2.04-4.19,4.53-4.19,7.46Zm14.22-28.22c2.42,1.32,3.63,2.58,3.63,3.79l.16,8.93c1.95-.32,3.58-.47,4.9-.47h3.63l.95-12.24h-13.27Z"/><path class="cls-1" d="M373.86,169.04h-9.95c1.21,1.79,1.82,3.45,1.82,4.98,0,2.42-2.32,3.69-6.95,3.79-1.11,0-3.03-.1-5.77-.32l-5.69-.47c-.79-.05-1.54,.23-2.25,.83-.71,.61-1.07,1.3-1.07,2.09,0,1.53,.97,2.92,2.92,4.19,2.47-1,5.5-1.55,9.08-1.66,3.16-.05,5.95,.74,8.37,2.37,2.74,1.84,4.11,4.29,4.11,7.35,0,2.53-1.21,4.56-3.63,6.08-2.11,1.32-4.5,1.97-7.19,1.97-1.26-.74-2.37-2.42-3.32-5.05,1.16,.21,2.5,.32,4.03,.32,5.21,.11,7.9-1.53,8.06-4.9,.16-3.21-2.92-4.84-9.24-4.9-3.79-.05-7.21,.76-10.27,2.45-3.74,2.05-5.63,4.85-5.69,8.37-.05,3.16,2.13,5.77,6.56,7.82,3.48,1.63,7,2.5,10.58,2.61,1.58,.05,3.08-.16,4.5-.63-.16,1.53-1,2.29-2.53,2.29-5.27,.05-10.24-.95-14.93-3-5.95-2.58-8.95-6.13-9-10.66-.05-4,2.95-7.42,9-10.27-3.84-1.84-5.79-4.21-5.85-7.11,0-1.21,.68-2.29,2.05-3.24,1.21-.89,2.45-1.34,3.71-1.34,1.37,0,3.41,.13,6.12,.39,2.71,.26,4.75,.39,6.12,.39,3.79,.05,5.69-1.05,5.69-3.32,.05-.26-.08-.74-.39-1.42h-26.93l.16-3.55h37.91l-.16,3.55Z"/><path class="cls-1" d="M390.76,169.04h-8.29l-1.97,28.28c-.26,3.53,.76,6.11,3.08,7.74-1.42-.26-3.05-1.21-4.9-2.84-2.21-1.95-3.27-3.71-3.16-5.29l1.97-27.88h-5.06v-3.55h18.32v3.55Z"/><path class="cls-1" d="M394.47,188.79v-3.55h23.3v3.55h-23.3Z"/><path class="cls-1" d="M465.88,169.04h-8.06c1.11,1.53,1.71,3.19,1.82,4.99,.1,2.16-1.13,4.09-3.71,5.78-1.9,1.27-4.16,2.24-6.79,2.93,2.95,.69,5.32,2.01,7.11,3.96,1.95,2.11,2.95,4.62,3,7.52,.05,3.33-1.37,5.96-4.27,7.92-2.48,1.69-5.48,2.56-9,2.61-4.42,.1-8.39-1.57-11.89-5.03-3.5-3.46-5.25-7.41-5.25-11.85l.71-3.88c2.05-2.53,4.5-3.83,7.35-3.88,.1,0,.16,.21,.16,.63-.05,.26-.29,.61-.71,1.03-1.53,1.48-2.32,4.16-2.37,8.06-.05,3.16,.95,5.81,3,7.94,2.05,2.13,4.66,3.23,7.82,3.28,2.69,.05,5.02-.75,6.99-2.41,1.97-1.66,2.99-3.8,3.04-6.44,.05-2.32-.82-4.25-2.61-5.81-1.79-1.55-3.87-2.33-6.24-2.33l-2.61,.39c-.74-2.02-1.11-3.84-1.11-5.45h1.34c2.95,0,5.63-.34,8.06-1.04,3.74-1.06,5.61-2.76,5.61-5.09,0-2.18-.74-3.45-2.21-3.82h-29.62l.16-3.55h40.44l-.16,3.55Z"/><path class="cls-1" d="M491.86,169.04h-27.25l.16-3.55h27.25l-.16,3.55Zm-1.03,11.12c-.58,.11-1.45,.35-2.61,.73-1.26,0-3.05-.1-5.37-.32-2.48-.25-4.24-.41-5.29-.47-2.42-.05-4.34,1.11-5.77,3.48-1.16,2-1.79,4.32-1.9,6.95-.05,2.42,.58,4.82,1.9,7.19,1.47,2.63,3.4,3.98,5.77,4.03,1.16,.05,1.76,.54,1.82,1.45,.05,1.45-.68,2.21-2.21,2.26-3,.05-5.69-1.97-8.06-6.08-2.11-3.63-3.19-7.08-3.24-10.35-.05-3.48,1.03-6.54,3.24-9.2,2.21-2.66,5.03-4.01,8.45-4.07,1,0,2.47,.13,4.42,.39,1.95,.26,3.37,.39,4.27,.39,1.9,.05,3.53-.21,4.9-.79l-.32,4.4Z"/><path class="cls-1" d="M540.99,169.04h-7.66l-2.21,30.65c.1,2.11,.92,3.95,2.45,5.53-1.84-.63-3.48-1.55-4.9-2.76-1.79-1.53-2.63-3.11-2.53-4.74l1.26-16.35c-1.16,1.26-2.29,1.92-3.39,1.97-1.74,.05-3.18-.66-4.34-2.13-2.53,4.48-7.13,6.74-13.81,6.79-2.47,0-5.34-.93-8.6-2.79l5.67,7.51c5.57,7.37,11.62,11.24,18.15,11.61-1.06,.59-2.15,.88-3.26,.88-7.53,0-14.76-4.51-21.7-13.53l-4.98-6.53,5.92-3.4c1.84,2.26,3.98,3.42,6.4,3.48,3.53,.05,6.56-1.12,9.08-3.51,2.53-2.4,3.79-5.36,3.79-8.89,0-4.11-2.05-6.16-6.16-6.16-3.42,0-6.61,.74-9.56,2.21-3.16,1.58-5.53,3.76-7.11,6.56l.63-7.27c2.37-2.79,7.19-4.21,14.45-4.27,3.21,0,6.07,1.16,8.57,3.48,2.5,2.32,3.8,5.06,3.91,8.21,.05,1.58-.26,3.08-.95,4.5,.79,.16,1.82,.32,3.08,.47,.95-.1,2.4-.95,4.34-2.53l.71-9h-4.5v-3.55h17.22v3.55Z"/><path class="cls-1" d="M579.69,169.04h-7.11l-2.21,30.19c.1,2.63,.6,4.47,1.5,5.52-4.58-1.36-6.79-3.19-6.63-5.49l.55-7.22c-4,4.69-8.98,7.03-14.93,7.03-2.84,0-5.23-1.09-7.15-3.28-1.92-2.18-2.88-4.7-2.88-7.54,0-4.9,1.53-8.74,4.58-11.53,2.9-2.69,6.82-4.03,11.77-4.03,3.79,0,6.92,3.11,9.4,9.32l.87-12.95h-27.72l.16-3.55h39.97l-.16,3.55Zm-21.33,8.37c-3.48-.05-6.85,.98-10.11,3.08-3.63,2.37-5.45,5.21-5.45,8.53,0,1.74,.57,3.12,1.7,4.15,1.13,1.03,2.59,1.54,4.38,1.54,3.11,.05,6.63-.97,10.58-3.08,4.48-2.37,6.82-4.95,7.03-7.74-.53-1.84-1.54-3.38-3.04-4.62-1.5-1.24-3.2-1.86-5.09-1.86Z"/></g><g><path class="cls-2" d="M200.02,46.64c.52,0,.81-.41,.81-.79,0-.45-.34-.79-.79-.79h-9.89c-.59,0-1.06,.45-1.06,1.02v12.84c0,.59,.45,1.06,1.06,1.06h9.87c.47,0,.81-.36,.81-.81s-.34-.81-.81-.81h-9.28v-4.98h8.58c.52,0,.81-.41,.81-.79s-.29-.79-.81-.79h-8.58v-5.16h9.28Zm15.98-1.67c-.41,0-.83,.31-.83,.88v11.06l-9.8-11.45c-.22-.27-.5-.43-.79-.43-.4,0-.81,.32-.81,.93v13.27c0,.56,.43,.86,.83,.86s.83-.31,.83-.86v-11.08l9.82,11.47c.22,.27,.52,.41,.81,.41,.38,0,.79-.27,.79-.88v-13.31c-.02-.58-.43-.88-.85-.88h0Zm25.71,6.67c-2.59-.22-5.03-.43-5.03-2.41,0-.2,.04-.4,.11-.54l.02-.05c.47-1.37,2.45-1.98,3.97-2.09,.09,0,.18,0,.29-.02,.07,0,.14-.02,.22-.02,2.41,0,3.97,.52,4.64,1.58h0c.14,.23,.4,.36,.67,.36,.43,0,.79-.34,.79-.77,0-.16-.05-.31-.14-.45h0c-1.29-1.98-4.3-2.28-5.95-2.28-.61,0-1.28,.05-1.92,.18-2.7,.58-4.3,2.09-4.3,4.06,0,3.47,3.61,3.76,6.51,3.99,2.77,.22,4.98,.4,4.98,2.37,0,2.89-4.51,2.98-5.02,2.98-.32,0-.67-.02-.97-.07-1.49-.14-3.34-.7-4.03-1.85-.07-.11-.31-.47-.72-.47-.45,0-.81,.36-.81,.81,0,.13,.04,.27,.09,.38h0c1.33,2.54,5.27,2.73,6.44,2.73,3.22,0,6.65-1.19,6.65-4.51-.04-3.38-3.45-3.67-6.47-3.92h0Zm-10.34,.9h0c0-3.43-2.27-5.83-5.52-5.83h-4.28v11.63h4.28c3.09,0,5.52-2.55,5.52-5.81h0Zm-5.52-7.48c4.15,0,7.17,3.15,7.17,7.48s-3.15,7.46-7.17,7.46h-4.87c-.59,0-1.06-.47-1.06-1.04v-12.89c0-.56,.47-1.01,1.06-1.01h4.87Zm-55.06,0h-12.14c-.56,0-.86,.41-.86,.79s.31,.79,.86,.79h5.21v12.55c0,.58,.43,.88,.85,.88s.86-.32,.86-.88v-12.55h5.21c.56,0,.86-.41,.86-.79,0-.38-.29-.79-.86-.79h0Zm13.75,4.5h0c0-1.87-2-2.88-3.87-2.88h-5.36v5.75h5.38c2.09-.02,3.85-1.33,3.85-2.88h0Zm-2.64,4.32l3.97,4.67c.16,.2,.23,.43,.22,.67-.02,.22-.13,.41-.29,.56-.14,.13-.34,.2-.54,.2-.25,0-.49-.11-.67-.32l-4.82-5.65h-4.5v5.27c0,.47-.36,.83-.83,.83-.2,0-.4-.07-.54-.2-.18-.16-.27-.38-.27-.61v-13.38c0-.47,.36-.83,.83-.83h6.28c3.06,.02,5.36,1.94,5.36,4.46,0,2.05-1.78,3.87-4.21,4.33h0Zm-42.48-.72h0c.31,.72,.65,1.4,.81,2.18,.06,.59,.12,1.15,.03,1.72-.37,2.12-2.09,3.24-2.09,3.24h-.06s-1.72-1.12-2.09-3.24c-.09-.59-.03-1.15,.03-1.72,.09-.78,.44-1.47,.75-2.18,.53-1.22,.97-2.49,1.25-3.8,0-.03,.03-.06,.06-.06s.06,.03,.06,.06c.28,1.31,.72,2.56,1.25,3.8h0Zm14.5-6.18c0-.06,0-.12,.03-.25h0c0-.12-.03-.25-.03-.37-.5-7.17-6.24-12.85-13.25-12.85s-13.29,6.21-13.29,13.85c0,5.89,3.49,10.88,8.45,12.91-1.65-1.75-2.74-4.43-2.74-7.45,0-5.3,3.34-9.61,7.42-9.61h.12c2.31,0,4.18,1.87,4.18,4.18s-1.87,4.18-4.18,4.18l4.49,5.96c.37,.53,.97,.87,1.65,.87,.47,0,.9-.25,1-.28,3.62-2.28,6.05-6.39,6.11-11.1l.03-.03h0Z"/><g><path class="cls-1" d="M258.85,60.14v-8.47h4.14c.55,0,1.01,.11,1.37,.32,.36,.21,.63,.51,.81,.88s.27,.79,.27,1.26c0,.49-.11,.93-.32,1.32-.21,.39-.5,.69-.86,.91-.36,.22-.77,.33-1.22,.33h-3.4v3.44h-.79Zm.79-4.15h3.3c.51,0,.92-.16,1.23-.49s.47-.78,.47-1.35c0-.37-.06-.69-.19-.96s-.31-.47-.56-.61-.57-.21-.96-.21h-3.3v3.62Z"/><path class="cls-1" d="M266.71,60.14v-6.49h.56l.07,1.11h.07c.05-.2,.13-.39,.24-.59,.11-.19,.27-.35,.48-.48,.21-.13,.46-.19,.77-.19,.12,0,.23,0,.32,.03,.09,.02,.16,.03,.2,.05v.64h-.36c-.3,0-.55,.06-.76,.18-.21,.12-.38,.28-.51,.48-.13,.2-.22,.42-.28,.67-.06,.25-.09,.5-.09,.75v3.85h-.72Z"/><path class="cls-1" d="M272.79,60.29c-.6,0-1.11-.12-1.54-.36-.42-.24-.75-.62-.96-1.12-.22-.5-.33-1.14-.33-1.91s.11-1.42,.33-1.92c.22-.5,.54-.87,.98-1.11s.97-.36,1.6-.36c.6,0,1.1,.12,1.51,.36,.4,.24,.71,.58,.91,1.02s.31,.98,.31,1.6v.59h-4.88c0,.63,.08,1.13,.25,1.51,.17,.38,.41,.66,.72,.83,.31,.17,.69,.25,1.12,.25,.35,0,.66-.05,.91-.14,.25-.09,.46-.22,.62-.38,.16-.16,.28-.34,.37-.54,.09-.21,.13-.42,.14-.63h.69c0,.3-.07,.58-.17,.86-.11,.28-.27,.52-.49,.74-.22,.22-.51,.39-.85,.52s-.76,.19-1.23,.19Zm-2.07-3.81h4.14c0-.44-.05-.8-.15-1.11-.1-.3-.25-.54-.43-.73-.18-.19-.4-.32-.64-.4s-.52-.12-.81-.12c-.44,0-.8,.08-1.1,.25-.3,.17-.53,.43-.7,.77-.17,.35-.27,.79-.29,1.33Z"/><path class="cls-1" d="M279.02,60.29c-.42,0-.79-.04-1.11-.12-.32-.08-.59-.2-.8-.36-.21-.16-.38-.36-.49-.61-.11-.24-.17-.52-.17-.83,0-.03,0-.07,0-.11,0-.04,0-.08,0-.11h.72s-.01,.09-.01,.12v.09c0,.35,.08,.62,.24,.81,.16,.19,.38,.33,.67,.4,.29,.07,.62,.11,1,.11,.33,0,.62-.05,.88-.14,.26-.09,.46-.23,.61-.41,.15-.18,.23-.4,.23-.67,0-.33-.1-.58-.29-.75-.19-.17-.44-.3-.75-.39-.3-.09-.62-.19-.95-.28-.25-.07-.51-.15-.77-.24-.26-.09-.48-.2-.69-.33-.2-.13-.36-.3-.49-.5-.12-.2-.19-.45-.19-.76,0-.25,.05-.49,.16-.7s.26-.39,.46-.54c.2-.15,.45-.27,.74-.35,.29-.08,.63-.12,1.01-.12,.44,0,.82,.05,1.12,.15,.3,.1,.54,.24,.72,.41s.3,.37,.38,.57,.12,.42,.12,.64v.09s0,.08-.01,.12h-.72v-.19c0-.17-.04-.35-.12-.53-.08-.18-.23-.34-.47-.46-.23-.13-.59-.19-1.06-.19-.27,0-.51,.02-.7,.07-.2,.05-.36,.12-.49,.2-.13,.09-.23,.2-.3,.33-.07,.13-.11,.29-.11,.47,0,.26,.08,.46,.24,.6,.16,.14,.37,.24,.62,.32,.26,.08,.53,.17,.81,.27,.29,.09,.58,.18,.86,.27,.29,.09,.55,.2,.79,.33,.24,.13,.43,.3,.57,.52,.14,.21,.22,.49,.22,.84,0,.31-.06,.59-.19,.83-.13,.24-.3,.45-.52,.61s-.49,.29-.8,.38c-.31,.09-.64,.13-1.01,.13Z"/><path class="cls-1" d="M285.36,60.29c-.6,0-1.11-.12-1.54-.36-.42-.24-.75-.62-.96-1.12-.22-.5-.33-1.14-.33-1.91s.11-1.42,.33-1.92c.22-.5,.54-.87,.98-1.11s.97-.36,1.6-.36c.6,0,1.1,.12,1.51,.36,.4,.24,.71,.58,.91,1.02s.31,.98,.31,1.6v.59h-4.88c0,.63,.08,1.13,.25,1.51,.17,.38,.41,.66,.72,.83,.31,.17,.69,.25,1.12,.25,.35,0,.66-.05,.91-.14,.25-.09,.46-.22,.62-.38,.16-.16,.28-.34,.37-.54,.09-.21,.13-.42,.14-.63h.69c0,.3-.07,.58-.17,.86-.11,.28-.27,.52-.49,.74-.22,.22-.51,.39-.85,.52s-.76,.19-1.23,.19Zm-2.07-3.81h4.14c0-.44-.05-.8-.15-1.11-.1-.3-.25-.54-.43-.73-.18-.19-.4-.32-.64-.4s-.52-.12-.81-.12c-.44,0-.8,.08-1.1,.25-.3,.17-.53,.43-.7,.77-.17,.35-.27,.79-.29,1.33Z"/><path class="cls-1" d="M289.54,60.14v-6.49h.54l.09,1.06h.09c.19-.31,.4-.56,.64-.73,.23-.18,.49-.3,.76-.37,.27-.07,.56-.11,.85-.11,.41,0,.77,.07,1.08,.2,.31,.13,.55,.35,.72,.65,.17,.3,.25,.71,.25,1.22v4.58h-.72v-4.54c0-.3-.04-.54-.12-.73-.08-.19-.19-.34-.33-.44-.14-.1-.3-.17-.49-.22s-.39-.06-.61-.06c-.34,0-.66,.08-.98,.25-.32,.16-.57,.41-.77,.73-.19,.32-.29,.71-.29,1.17v3.85h-.72Z"/><path class="cls-1" d="M297.62,60.28c-.28,0-.5-.05-.66-.14s-.27-.22-.34-.39c-.07-.17-.1-.37-.1-.59v-4.88h-.89v-.63h.9l.14-1.8h.57v1.8h1.3v.63h-1.3v4.7c0,.24,.03,.41,.09,.52s.2,.16,.43,.16h.78v.44c-.08,.04-.18,.07-.28,.1-.11,.02-.22,.04-.33,.06-.11,.01-.21,.02-.3,.02Z"/><path class="cls-1" d="M301.79,60.29c-.42,0-.79-.04-1.11-.12-.32-.08-.59-.2-.8-.36-.21-.16-.38-.36-.49-.61-.11-.24-.17-.52-.17-.83,0-.03,0-.07,0-.11,0-.04,0-.08,0-.11h.72s-.01,.09-.01,.12v.09c0,.35,.08,.62,.24,.81,.16,.19,.38,.33,.67,.4,.29,.07,.62,.11,1,.11,.33,0,.62-.05,.88-.14,.26-.09,.46-.23,.61-.41,.15-.18,.23-.4,.23-.67,0-.33-.1-.58-.29-.75-.19-.17-.44-.3-.75-.39-.3-.09-.62-.19-.95-.28-.25-.07-.51-.15-.77-.24-.26-.09-.48-.2-.69-.33-.2-.13-.36-.3-.49-.5-.12-.2-.19-.45-.19-.76,0-.25,.05-.49,.16-.7s.26-.39,.46-.54c.2-.15,.45-.27,.74-.35,.29-.08,.63-.12,1.01-.12,.44,0,.82,.05,1.12,.15,.3,.1,.54,.24,.72,.41s.3,.37,.38,.57,.12,.42,.12,.64v.09s0,.08-.01,.12h-.72v-.19c0-.17-.04-.35-.12-.53-.08-.18-.23-.34-.47-.46-.23-.13-.59-.19-1.06-.19-.27,0-.51,.02-.7,.07-.2,.05-.36,.12-.49,.2-.13,.09-.23,.2-.3,.33-.07,.13-.11,.29-.11,.47,0,.26,.08,.46,.24,.6,.16,.14,.37,.24,.62,.32,.26,.08,.53,.17,.81,.27,.29,.09,.58,.18,.86,.27,.29,.09,.55,.2,.79,.33,.24,.13,.43,.3,.57,.52,.14,.21,.22,.49,.22,.84,0,.31-.06,.59-.19,.83-.13,.24-.3,.45-.52,.61s-.49,.29-.8,.38c-.31,.09-.64,.13-1.01,.13Z"/></g></g><g><path class="cls-6" d="M94.93,104.38c-1.96,4.28-4.82,7.9-8.15,10.43-3.24,2.59-7.15,4.1-10.78,5.71-3.64,1.59-7.07,3.27-9.67,5.56-2.57,2.23-4.28,4.71-5.13,6.98-.73,1.82-.87,3.46-.78,4.67,.03,.36,.39,1.59,.76,2.48l2.26,5.53-1.41,.88c-.88,.44-2.61,.37-4.93,1.54-1.66,.84-3.7,1.7-6.03,2.35-1.17,.3-2.41,.61-3.7,.77-.32,.05-.65,.09-.98,.12l-.77,.08h-.03s-.07,.03,0-.09c.9-.96,1.69-1.93,2.37-2.92,1.37-1.96,2.28-3.89,2.87-5.56,1.16-3.35,1.07-5.54,.72-5.6-.16-.03-.36,.21-.62,.69,.65-1.33,.62-1.75,.16-1.94,.84,.2,1.32,.35,1.43,.14,.11-.16-.27-.73-1.3-1.41-1.03-.68-2.77-1.44-5.18-1.63-2.12-.16-4.77,.15-7.49,1.38-.34,.15-.68,.32-1.02,.5-3.12,1.61-6.05,4.7-7.79,8.7-1.78,3.99-2.49,8.81-1.89,13.82,.58,4.98,2.39,9.99,4.73,14.8,1.83,3.77,3.97,7.44,5.98,11.19,.57,1.04,1.11,2.09,1.64,3.15,2.43,4.83,4.4,9.96,4.74,15.28,.38,5.31-1.14,10.15-4.41,13.79-.61,.7-1.27,1.36-1.97,1.96-2.92,2.53-6.5,4.18-10.03,4.65-4.37,.61-8.66-.65-12.09-2.86-3.43-2.22-5.94-5.31-7.47-8.45-1.45-3.16-2.03-6.46-1.63-9.1,.18-1.32,.6-2.47,1.18-3.4,.57-.92,1.3-1.56,2.11-2.03,1.62-.93,3.18-.98,4.18-.81,1.02,.18,1.57,.48,1.74,.3t0-.01c.08,1.27,.79,3.24,1.97,5.27,1.22,2.09,2.64,3.72,3.71,4.37-.02,0-.05,.02-.06,.03-.16,.12-.11,.6,.35,1.29,.46,.69,1.37,1.6,2.86,2.27,1.47,.64,3.51,1.08,5.87,.63,2.39-.42,4.93-1.95,6.77-4.3,.18-.24,.36-.48,.54-.73,1.55-2.26,2.54-5.13,2.67-8.27,.15-3.45-.72-7.02-2.18-10.34-.16-.36-.32-.71-.49-1.06-2.99-6.23-7.98-11.74-13.15-16.8-5.5-5.36-10.57-10.21-13.93-15.38-1.69-2.55-2.97-5.16-3.74-7.68-.78-2.48-1.04-4.97-.97-7.23,.12-4.56,1.68-8.05,3.1-10.21,.54-.81,1.06-1.46,1.47-1.98h0c.31-.32,.56-.65,.76-1,0-.01,.01-.02,.02-.03,.06-.12,.13-.25,.18-.37h0c.52-1.17,.52-2.43,.18-3.59h0c-.02-.25-.17-.61-.42-1.07-.06-.12-.12-.24-.19-.36-1.02-1.85-3.13-5.11-4.66-9.94-1.02-3.31-1.7-7.36-1.36-11.71,.78,.08,1.83,.01,3.05-.37,1.39-.43,2.93-1.27,4.37-2.5,1.45-1.24,2.72-2.83,3.86-4.53,.64-.96,1.22-1.9,1.75-2.79,.42-.69,.81-1.35,1.2-1.97,.88-1.41,1.72-2.62,2.49-3.58,1.53-1.93,2.81-2.88,2.61-3.31-.15-.38-1.98-.09-4.21,1.69-1.1,.88-2.24,2.09-3.33,3.51-.87,1.13-1.69,2.38-2.53,3.65-.22,.33-.44,.66-.67,1-1.07,1.6-2.13,3.05-3.21,4.17-1.08,1.13-2.22,1.98-3.24,2.58-.74,.44-1.42,.73-2,.96,.35-2.87,1.25-5.85,2.65-8.71,.88-1.79,1.96-3.54,3.25-5.2,1.42-1.81,3.02-3.42,4.72-4.79,2.4-1.95,5.01-3.44,7.65-4.41,4.52-1.71,9.04-2.09,12.81-1.88,.5,.03,.99,.08,1.47,.13,4.87,.5,8.27,1.79,9.95,2.16-.76,1.3-1.39,2.65-1.89,4.01-1.07,2.93-1.52,5.92-1.41,8.72,.02,.43,.05,.85,.09,1.26h4.44c-.02-.43-.02-.86,0-1.3,.1-2.82,.89-5.86,2.48-8.69,.37-.66,.78-1.3,1.23-1.93,2.37-3.36,5.89-6.1,10.27-7.53,4.34-1.48,9.44-1.64,14.26-.32,4.81,1.32,9.39,4.24,12.9,8.31,.42,.48,.81,.97,1.19,1.48,2.3,3.03,3.92,6.48,4.72,9.99,.2,.84,.35,1.68,.46,2.52,.63,4.96-.36,9.96-2.3,14.23Zm1-59.48c-.75-2.94-2.57-6.13-5.74-8.43-1.56-1.15-3.42-2.04-5.43-2.53-1.99-.47-4.2-.53-6.43-.13-4.51,.77-8.68,3.02-12.36,5.23-3.7,2.27-7.12,4.53-10.22,6.1-1.67,.85-3.22,1.49-4.62,1.97-1.77,1.69-3.64,2.65-5.08,3.1-2.2,.69-3.51,.39-3.58,0-.11-.47,.95-1.02,2.45-2.22,.02-.02,.04-.03,.06-.05-.08-.05-.14-.09-.15-.15-.04-.27,.55-.62,1.6-1.15,1.15-1.15,2.34-2.68,3.13-4.67,.55-1.43,.87-3.06,.8-4.9-.06-1.82-.46-3.82-1.12-5.98-.66-2.16-1.59-4.48-2.52-7.02-.47-1.27-.93-2.6-1.35-4.01-.21-.69-.39-1.44-.58-2.17-.1-.35-.17-.78-.23-1.12,0-.02,0-.02,0-.02,0,0,0,0,.02-.05,.03-.09,.02-.13-.07-.12-.02,0-.05,0-.09,.02l-.02,.02-.14,.14-.28,.3-.54,.61c-.71,.8-1.38,1.59-1.98,2.39-1.92,2.48-3.25,4.93-4.05,7.25-.23,.65-.42,1.29-.56,1.91-.68,2.76-.62,5.02-.46,6.69,.25,.42,.47,.83,.66,1.25,1.52,3.31,1.67,6.49,1.25,8.91-.4,2.45-1.36,4.17-2.16,5.15-.79,1-1.4,1.33-1.55,1.21-.11-.09-.07-.33,.05-.7-.21-.22-.4-.62-.61-1.2-.31-.85-.65-2.06-1.28-3.23-.61-1.15-1.67-2.28-2.84-2.56-1.26-.32-2.49,.05-3.5,1.33-.5,.62-.84,1.4-.99,2.15-.16,.73-.12,1.52,.05,2.28,.35,1.53,1.19,2.78,2.15,3.61,1.99,1.71,4.08,1.9,4.13,2.58,.04,.31-.43,.74-1.47,.95-1.02,.21-2.62,.2-4.43-.63-1.8-.82-3.7-2.62-4.62-5.19-.46-1.27-.69-2.76-.47-4.33,.22-1.54,.82-3.05,1.84-4.37,1-1.32,2.46-2.37,4.11-2.83,1.66-.47,3.32-.28,4.72,.29,1.42,.59,2.5,1.59,3.2,2.6,.58,.82,.93,1.67,1.17,2.46-.02-2.01-.53-4.48-1.93-6.81-1.44-2.41-3.92-4.48-7.32-5.18-3.31-.75-7.42-.18-10.6,2.09-3.16,2.19-5.35,6.3-5.55,10.79-.12,2.24,.26,4.53,1.19,6.61,.92,2.12,2.38,4.07,4.24,5.69,1.84,1.63,4.1,2.87,6.5,3.65,2.39,.75,5.05,1,7.75,.76,2.87-.25,5.7-.98,8.45-2.01,2.46-.91,4.85-2.05,7.15-3.29,4.92-2.67,9.64-5.76,14.57-8.27,4.88-2.53,10.13-4.45,15.27-4.96,5.1-.58,10.16,.16,14.22,2.23,2,1,3.83,2.37,5.2,3.92,.5,.56,.93,1.14,1.33,1.72,.02-.11,.03-.22,.05-.34,.2-1.78,.36-4.37-.42-7.33Zm-1.16,12.35c-.68-1.26-1.59-2.51-2.75-3.58-1.15-1.08-2.52-1.94-4.18-2.64-3.27-1.38-7.33-1.77-11.62-1.07-4.32,.65-8.69,2.41-13.18,4.91-4.51,2.46-9.09,5.62-14.32,8.56-2.69,1.49-5.58,2.91-8.68,4.03,3.1,.91,5.48,2.15,7.06,3.26,.97,.69,1.66,1.3,2.08,1.79,1.37-2.07,3.06-4.06,5.15-5.73,2.17-1.74,4.66-3.19,7.4-4.18,5.45-2.03,11.74-2.39,17.85-.83,5.65,1.47,10.96,4.66,15.14,9.07,1.02-1.84,1.49-3.53,1.71-4.5,0-.02,0-.04,.01-.06,.1-.59,.17-1.25,.19-1.96,.03-2.03-.47-4.58-1.86-7.09Z"/><path class="cls-5" d="M7.51,77.65c-.23,.27-.46,.55-.68,.83-2.09,2.69-3.72,5.64-4.86,8.65v-9.47c.32,0,.63-.01,.95-.01H7.51Z"/><path class="cls-2" d="M51.34,201.59c.21,3.31-.08,6.69-1.17,9.91-1.04,3.22-2.79,6.1-4.95,8.47-4.3,4.75-10.12,7.7-16.03,8.3-2.95,.31-5.92,0-8.59-.8-2.68-.79-5.09-2.04-7.19-3.53-4.18-3.02-7.05-7.03-8.63-11.07-1.51-4.08-1.86-8.12-.97-11.6,.44-1.73,1.22-3.29,2.24-4.51,1.03-1.23,2.34-2.06,3.53-2.48,2.44-.87,4.54-.4,5.66,.26,1.14,.7,1.41,1.37,1.28,1.5-.16,.18-.72-.12-1.73-.3-1-.16-2.56-.12-4.18,.81-.81,.47-1.54,1.11-2.11,2.03-.58,.93-.99,2.08-1.18,3.4-.39,2.65,.18,5.94,1.63,9.1,1.52,3.14,4.04,6.23,7.47,8.45,3.42,2.2,7.71,3.46,12.08,2.85,4.38-.58,8.82-2.96,12.01-6.61,3.27-3.63,4.8-8.48,4.41-13.78-.34-5.31-2.3-10.45-4.74-15.28-2.43-4.86-5.29-9.51-7.62-14.34-2.34-4.8-4.15-9.81-4.73-14.8-.6-5.01,.11-9.84,1.89-13.83,1.75-3.99,4.68-7.09,7.79-8.7,3.08-1.66,6.12-2.06,8.51-1.89,2.41,.19,4.16,.95,5.18,1.63,1.04,.68,1.41,1.25,1.3,1.41-.25,.47-2.44-.91-6.47-.55-1.98,.2-4.4,.89-6.68,2.47-2.27,1.53-4.26,4.04-5.44,7.34-1.18,3.27-1.53,7.26-.82,11.36,.7,4.16,2.43,8.47,4.75,12.89,2.31,4.43,5.25,8.98,7.94,14.14,2.68,5.14,5.11,11.08,5.54,17.72Zm-30.47-28.61c5.4,5.26,10.11,10.38,12.8,15.79,1.34,2.67,2.13,5.33,2.22,7.79,.11,2.42-.53,4.68-1.58,6.42-1.06,1.73-2.5,2.92-3.99,3.47-1.51,.59-3.03,.61-4.22,.45-2.41-.38-3.58-1.51-3.95-1.19-.16,.12-.11,.6,.35,1.29,.46,.69,1.37,1.6,2.86,2.28,1.48,.64,3.52,1.08,5.88,.63,2.38-.42,4.93-1.95,6.76-4.31,1.85-2.35,3.07-5.52,3.2-9,.15-3.45-.72-7.02-2.18-10.34-2.93-6.67-8.17-12.52-13.65-17.86-5.5-5.36-10.57-10.21-13.93-15.38-1.69-2.55-2.97-5.16-3.74-7.68-.78-2.48-1.04-4.97-.97-7.23,.12-4.57,1.67-8.05,3.1-10.2,1.46-2.16,2.66-3.2,2.41-3.62-.18-.33-1.9-.03-4.26,1.96-2.31,1.97-4.97,5.93-5.75,11.43-.41,2.73-.41,5.8,.33,9.02,.71,3.18,2.05,6.38,3.86,9.44,3.59,6.16,9.05,11.57,14.44,16.84Zm36.23-24.81c-1.66,.84-3.7,1.69-6.03,2.35-1.17,.3-2.41,.61-3.71,.77-.32,.06-.65,.1-.98,.13l-.77,.08h-.03s-.07,.03,0-.09c.9-.95,1.69-1.93,2.37-2.92,1.37-1.95,2.28-3.89,2.87-5.56,1.16-3.35,1.07-5.54,.71-5.6-.44-.09-1.09,1.88-2.66,4.73-.79,1.42-1.82,3.07-3.19,4.72-.67,.84-1.44,1.66-2.28,2.47-.75,.8-1.94,1.67-3,2.54-1.19,.89-2.4,1.79-3.62,2.71,1.48,.08,2.99,.16,4.52,.23,1.27,.11,2.71,.03,4.11-.02,.17,0,.36-.01,.5-.03l.29-.04,.56-.07c.37-.04,.74-.1,1.1-.17,1.45-.24,2.81-.64,4.09-1.06,2.54-.89,4.68-2.06,6.32-3.24,3.3-2.37,4.64-4.54,4.36-4.8-.34-.34-2.21,1.18-5.53,2.86Zm43.17-41.24c-2.53,5.1-6.16,9.32-10.35,12.19-4.22,2.98-8.62,4.3-12.26,5.63-3.67,1.28-6.83,2.53-9.14,4.16-2.36,1.64-4.07,3.51-5.09,5.24-2.09,3.49-1.59,6.06-2.13,6.12-.18,.04-.59-.52-.8-1.76-.21-1.22-.21-3.18,.69-5.44,.86-2.27,2.56-4.75,5.13-6.98,2.61-2.28,6.04-3.97,9.68-5.56,3.63-1.61,7.54-3.12,10.78-5.7,3.33-2.53,6.2-6.16,8.15-10.43,1.94-4.27,2.93-9.27,2.3-14.23-.61-4.95-2.85-9.93-6.37-13.98-3.51-4.07-8.1-6.99-12.9-8.31-4.83-1.32-9.92-1.15-14.26,.32-4.38,1.43-7.91,4.18-10.27,7.54-2.4,3.33-3.58,7.15-3.7,10.61-.13,3.47,.86,6.6,2.26,9.09,1.41,2.48,3.15,4.35,4.76,5.62,3.26,2.57,5.73,3.09,5.61,3.61-.03,.2-.68,.32-1.9,.2-1.21-.13-3-.6-5.08-1.73-2.08-1.12-4.4-2.99-6.4-5.76-1.99-2.75-3.61-6.56-3.78-10.99-.17-4.1,.88-8.62,3.3-12.73-1.84-.4-5.76-1.93-11.42-2.29-3.76-.21-8.29,.17-12.81,1.88-4.51,1.66-8.93,4.84-12.38,9.2-3.33,4.29-5.32,9.23-5.9,13.9,.58-.22,1.26-.52,2-.96,1.02-.59,2.15-1.45,3.24-2.58,1.09-1.12,2.14-2.56,3.22-4.17,1.07-1.61,2.1-3.23,3.19-4.65,1.09-1.43,2.23-2.64,3.33-3.51,2.22-1.78,4.05-2.07,4.2-1.69,.2,.42-1.08,1.38-2.61,3.31-.77,.96-1.61,2.17-2.49,3.59-.88,1.41-1.82,3.05-2.96,4.76-1.14,1.7-2.41,3.3-3.86,4.53-1.44,1.24-2.98,2.07-4.36,2.51-1.21,.38-2.26,.45-3.05,.37-.33,4.35,.35,8.41,1.36,11.71,2.3,7.26,5.89,10.97,5.18,11.67-.28,.3-1.55-.21-3.37-1.79-1.81-1.57-4.11-4.28-6.02-8.21-1.86-3.92-3.27-9.14-2.94-15.06,.28-5.92,2.6-12.32,6.78-17.69,3.64-4.64,8.37-8.1,13.26-10.05-3.15-1.09-6.04-2.74-8.42-4.92-2.48-2.23-4.47-4.97-5.7-8-1.27-3.05-1.7-6.32-1.44-9.39,.47-6.15,3.7-11.81,8.51-14.83,4.78-3,10.26-3.35,14.71-2.03,1.85,.55,3.53,1.41,4.95,2.5-.11-.97-.15-2.02-.08-3.14,.17-3.59,1.61-7.89,4.18-11.81,.63-.99,1.33-1.96,2.07-2.91l.56-.72,.7-.85c.75-.84,1.51-1.71,2.3-2.54,1.58-1.68,3.2-3.31,4.88-5.02,1.55-1.57,3.12-3.16,4.72-4.77-.32,2.37-.64,4.77-.97,7.18-.11,.69-.12,1.11-.17,1.66l-.14,1.56-.14,1.57c-.04,.52-.12,1.08-.05,1.45l.11,1.09,.18,1.01c.07,.35,.1,.61,.19,.93,.16,.62,.28,1.22,.46,1.84,.35,1.23,.74,2.47,1.15,3.71,.82,2.48,1.69,4.98,2.29,7.55,.6,2.56,.93,5.2,.72,7.72-.11,1.59-.49,3.12-1.01,4.5,2.57-1.78,5.44-4.04,8.91-6.45,3.77-2.53,8.31-5.24,13.96-6.25,2.81-.49,5.72-.41,8.41,.31,2.68,.72,5.06,2.01,6.99,3.61,3.93,3.18,5.93,7.63,6.35,11.29,.46,3.71-.33,6.66-1.14,8.48-.29,.61-.57,1.1-.83,1.48,.26,.49,.5,.99,.7,1.48,1.38,3.29,1.56,6.46,1.1,8.9-.48,2.45-1.5,4.17-2.38,5.09-.88,.93-1.5,1.23-1.64,1.09-.18-.16,.11-.76,.56-1.79,.45-1.03,.94-2.62,.99-4.66,.03-2.03-.46-4.58-1.86-7.1-.68-1.26-1.59-2.51-2.75-3.58-1.15-1.08-2.51-1.94-4.18-2.64-3.27-1.38-7.33-1.77-11.62-1.07-4.32,.65-8.69,2.41-13.18,4.91-4.5,2.46-9.09,5.62-14.32,8.56-2.69,1.49-5.58,2.91-8.68,4.03,3.1,.91,5.48,2.15,7.06,3.26,.97,.69,1.66,1.3,2.08,1.79,1.37-2.08,3.07-4.06,5.15-5.74,2.18-1.74,4.66-3.19,7.4-4.18,5.45-2.03,11.74-2.39,17.85-.83,6.12,1.59,11.84,5.2,16.15,10.2,4.32,4.99,7.08,11.16,7.75,17.45,.69,6.3-.69,12.4-3.21,17.48ZM45.7,57.92c4.93-2.66,9.64-5.76,14.58-8.27,4.88-2.53,10.13-4.45,15.27-4.96,5.1-.58,10.16,.16,14.22,2.23,2,1,3.84,2.37,5.2,3.92,.5,.56,.94,1.14,1.34,1.73,.02-.11,.03-.22,.05-.34,.2-1.78,.36-4.37-.41-7.33-.75-2.94-2.57-6.13-5.74-8.43-1.56-1.15-3.42-2.04-5.43-2.53-1.99-.47-4.2-.53-6.43-.13-4.5,.77-8.68,3.02-12.37,5.23-3.69,2.27-7.11,4.53-10.22,6.1-1.67,.86-3.22,1.5-4.62,1.97-1.77,1.69-3.64,2.65-5.08,3.11-2.21,.69-3.51,.39-3.58,0-.11-.46,.95-1.01,2.45-2.22l.07-.05c-.08-.04-.14-.09-.15-.15-.04-.27,.55-.61,1.6-1.15,1.15-1.15,2.34-2.68,3.13-4.67,.55-1.43,.86-3.07,.79-4.91-.05-1.82-.45-3.82-1.12-5.98-.66-2.16-1.58-4.47-2.52-7.01-.46-1.28-.93-2.6-1.35-4.01-.21-.7-.39-1.44-.58-2.17-.1-.35-.16-.78-.23-1.11,0-.02,0-.03,0-.03,0,0,0,0,.02-.04,.03-.09,.02-.13-.07-.12-.02,0-.05,.01-.09,.03h-.02l-.14,.16-.28,.3-.54,.6c-.71,.8-1.38,1.6-1.98,2.39-2.46,3.17-3.94,6.29-4.61,9.16-.68,2.76-.62,5.02-.45,6.68,.25,.42,.47,.84,.66,1.25,1.52,3.31,1.66,6.49,1.25,8.91-.41,2.45-1.36,4.17-2.16,5.15-.79,1-1.4,1.33-1.55,1.21-.11-.09-.07-.33,.05-.71-.21-.22-.41-.62-.61-1.2-.31-.85-.64-2.06-1.28-3.23-.61-1.15-1.67-2.28-2.84-2.56-1.27-.32-2.49,.05-3.5,1.32-.49,.62-.83,1.4-.99,2.15-.15,.72-.12,1.52,.05,2.28,.35,1.53,1.2,2.78,2.15,3.61,1.99,1.71,4.07,1.9,4.13,2.58,.04,.31-.44,.74-1.47,.95-1.02,.21-2.63,.2-4.43-.64-1.8-.82-3.7-2.62-4.62-5.19-.46-1.27-.69-2.76-.47-4.33,.22-1.54,.82-3.05,1.84-4.37,1-1.31,2.45-2.37,4.11-2.82,1.67-.47,3.33-.28,4.73,.29,1.42,.59,2.5,1.59,3.2,2.6,.58,.83,.94,1.67,1.17,2.47-.02-2.01-.53-4.48-1.93-6.82-1.43-2.41-3.92-4.47-7.32-5.18-3.31-.75-7.42-.18-10.6,2.09-3.16,2.19-5.36,6.3-5.55,10.79-.11,2.24,.26,4.52,1.19,6.61,.92,2.11,2.38,4.07,4.24,5.69,1.84,1.63,4.1,2.88,6.5,3.66,2.39,.75,5.05,1,7.74,.76,5.43-.47,10.73-2.68,15.6-5.31Zm29.12,55.64c-3.05,3.3-4.99,5.4-4.68,5.74,.27,.31,2.71-1.15,6.25-4.11,1.76-1.5,3.78-3.4,5.75-5.8,1.97-2.4,3.86-5.35,5.16-8.77,1.29-3.43,1.81-7.01,1.45-10.25-.35-3.23-1.5-5.99-2.84-8-1.37-2.02-2.89-3.32-4.05-4-1.16-.69-1.91-.82-2.01-.65-.28,.43,2.19,1.96,4.1,5.79,.94,1.9,1.7,4.34,1.85,7.1,.16,2.75-.37,5.83-1.51,8.87-2.32,6.13-6.49,10.76-9.48,14.07Zm-50.26-.12c.06,.25,.14,.48,.22,.66,.22,.48,.43,.75,.35,.88-.07,.11-.47,.07-1-.37-.51-.44-1.08-1.37-1.15-2.62-.04-.62,.05-1.32,.33-2.03,.27-.69,.71-1.36,1.25-1.94,1.09-1.18,2.64-2.01,4.18-2.61,1.55-.6,2.95-1.04,4.1-1.63,1.17-.58,2.15-1.26,2.94-1.88,1.58-1.26,2.43-2.27,2.7-2.1,.23,.13-.18,1.49-1.65,3.19-.07,.08-.15,.16-.22,.24-.08,.31-.18,.67-.3,1.08-.24,.76-.58,1.66-1.1,2.66-.51,1-1.23,2.09-2.21,3.14-.98,1.04-2.12,1.93-3.28,2.52-1.16,.6-2.28,.89-3.17,.98-.9,.09-1.58-.02-1.99-.16Zm2.08-.57c.79-.17,1.75-.49,2.71-1.04,.96-.54,1.94-1.32,2.8-2.25,1.72-1.86,2.66-3.85,3.34-5.29-.5,.42-1.06,.83-1.69,1.21-1.02,.63-2.18,1.09-3.34,1.54,.05,.05,.1,.11,.14,.17,.76,1.03,.02,2.86-1.65,4.07-1.67,1.22-3.63,1.36-4.38,.33h0c-.04,.13-.06,.28-.08,.41-.05,.37-.04,.71,0,1.01,.43,.02,1.16,.05,2.15-.16Z"/></g></g></g></svg>