<?xml version="1.0" encoding="UTF-8"?><svg id="Layer_2" xmlns="http://www.w3.org/2000/svg" viewBox="0 0 59.05 130.1"><defs><style>.cls-1{fill:#fff;}.cls-1,.cls-2{fill-rule:evenodd;}.cls-3{fill:#ef1b1b;}.cls-2{fill:none;}</style></defs><g id="Layer_1-2"><g><path class="cls-3" d="M54.08,59.46c-1.11,2.44-2.75,4.5-4.64,5.94-1.85,1.48-4.07,2.33-6.14,3.25-2.07,.91-4.03,1.86-5.51,3.16-1.46,1.27-2.44,2.68-2.92,3.98-.41,1.04-.49,1.97-.44,2.66,.02,.21,.22,.91,.44,1.41l1.29,3.15-.8,.5c-.5,.25-1.49,.21-2.81,.88-.95,.48-2.11,.97-3.43,1.34-.67,.17-1.37,.35-2.11,.44-.18,.03-.37,.05-.56,.07l-.44,.05h-.02s-.04,.02,0-.05c.51-.55,.96-1.1,1.35-1.66,.78-1.11,1.3-2.22,1.63-3.17,.66-1.91,.61-3.15,.41-3.19-.09-.02-.2,.12-.35,.39,.37-.76,.35-1,.09-1.1,.48,.11,.75,.2,.82,.08,.06-.09-.15-.41-.74-.8-.58-.39-1.58-.82-2.95-.93-1.21-.09-2.71,.09-4.27,.79-.19,.09-.39,.18-.58,.29-1.77,.92-3.44,2.68-4.44,4.96-1.02,2.27-1.42,5.02-1.08,7.87,.33,2.84,1.36,5.69,2.69,8.43,1.04,2.15,2.26,4.24,3.4,6.37,.32,.59,.63,1.19,.94,1.79,1.39,2.75,2.51,5.68,2.7,8.7,.22,3.02-.65,5.78-2.51,7.85-.35,.4-.73,.77-1.12,1.11-1.67,1.44-3.7,2.38-5.71,2.65-2.49,.35-4.93-.37-6.89-1.63-1.95-1.27-3.39-3.02-4.25-4.81-.83-1.8-1.16-3.68-.93-5.19,.11-.75,.34-1.41,.67-1.94,.33-.52,.74-.89,1.2-1.16,.92-.53,1.81-.56,2.38-.46,.58,.11,.9,.28,.99,.17h0c.05,.72,.45,1.84,1.12,2.99,.7,1.19,1.5,2.12,2.11,2.49-.01,0-.03,0-.04,.02-.09,.07-.06,.34,.2,.74,.26,.39,.78,.91,1.63,1.29,.84,.36,2,.62,3.35,.36,1.36-.24,2.81-1.11,3.85-2.45,.11-.13,.21-.27,.31-.42,.88-1.29,1.45-2.92,1.52-4.71,.09-1.97-.41-4-1.24-5.89-.09-.2-.18-.4-.28-.6-1.71-3.55-4.55-6.69-7.49-9.57-3.14-3.05-6.02-5.81-7.93-8.76-.96-1.45-1.69-2.94-2.13-4.37-.45-1.41-.59-2.83-.55-4.12,.07-2.6,.96-4.59,1.77-5.81,.31-.46,.6-.83,.83-1.13h0c.18-.18,.32-.37,.43-.57,0,0,0-.01,.01-.02,.04-.07,.07-.14,.11-.21h0c.3-.66,.3-1.38,.11-2.05h0c0-.14-.1-.35-.24-.61-.03-.07-.07-.14-.11-.2-.58-1.05-1.78-2.91-2.66-5.66-.58-1.88-.97-4.19-.78-6.67,.45,.05,1.05,0,1.74-.21,.79-.25,1.67-.72,2.49-1.43,.82-.71,1.55-1.61,2.2-2.58,.36-.55,.69-1.08,1-1.59,.24-.39,.46-.77,.68-1.12,.5-.81,.98-1.49,1.42-2.04,.87-1.1,1.6-1.64,1.49-1.88-.09-.22-1.13-.05-2.4,.96-.62,.5-1.28,1.19-1.9,2-.49,.64-.96,1.36-1.44,2.08-.13,.19-.25,.38-.38,.57-.61,.91-1.21,1.74-1.83,2.38-.62,.64-1.26,1.13-1.84,1.47-.42,.25-.81,.42-1.14,.55,.2-1.64,.71-3.33,1.51-4.96,.5-1.02,1.12-2.02,1.85-2.96,.81-1.03,1.72-1.95,2.69-2.73,1.37-1.11,2.86-1.96,4.36-2.51,2.57-.98,5.15-1.19,7.3-1.07,.29,.02,.57,.04,.84,.07,2.77,.28,4.71,1.02,5.67,1.23-.43,.74-.79,1.51-1.07,2.28-.61,1.67-.87,3.37-.8,4.97,0,.24,.03,.48,.05,.72h2.53c0-.24-.01-.49,0-.74,.06-1.6,.51-3.34,1.41-4.95,.21-.37,.44-.74,.7-1.1,1.35-1.91,3.36-3.48,5.85-4.29,2.47-.84,5.38-.94,8.12-.18,2.74,.75,5.35,2.42,7.35,4.73,.24,.27,.46,.56,.68,.84,1.31,1.73,2.23,3.69,2.69,5.69,.12,.48,.2,.96,.26,1.43,.36,2.83-.2,5.67-1.31,8.1Zm.57-33.88c-.43-1.68-1.46-3.49-3.27-4.8-.89-.65-1.95-1.16-3.09-1.44-1.13-.27-2.39-.3-3.66-.07-2.57,.44-4.95,1.72-7.04,2.98-2.11,1.29-4.06,2.58-5.82,3.47-.95,.49-1.84,.85-2.63,1.12-1.01,.96-2.07,1.51-2.9,1.77-1.26,.39-2,.22-2.04,0-.06-.27,.54-.58,1.4-1.27,0,0,.02-.02,.04-.03-.05-.03-.08-.05-.09-.09-.02-.15,.31-.35,.91-.66,.65-.65,1.33-1.53,1.78-2.66,.32-.82,.49-1.75,.45-2.79-.03-1.04-.26-2.18-.64-3.41-.37-1.23-.9-2.55-1.43-4-.27-.73-.53-1.48-.77-2.28-.12-.39-.22-.82-.33-1.24-.06-.2-.1-.45-.13-.64h0s0-.02,.01-.04c.02-.05,0-.07-.04-.07-.01,0-.03,0-.05,.01h0l-.08,.09-.16,.17-.31,.35c-.4,.46-.79,.91-1.13,1.36-1.09,1.41-1.85,2.81-2.31,4.13-.13,.37-.24,.73-.32,1.09-.39,1.57-.35,2.86-.26,3.81,.14,.24,.27,.47,.38,.71,.87,1.88,.95,3.7,.71,5.08-.23,1.39-.78,2.37-1.23,2.93-.45,.57-.8,.76-.88,.69-.06-.05-.04-.19,.03-.4-.12-.12-.23-.35-.35-.68-.18-.48-.37-1.17-.73-1.84-.35-.65-.95-1.3-1.62-1.46-.72-.18-1.42,.03-1.99,.76-.28,.35-.48,.8-.56,1.22-.09,.41-.07,.86,.03,1.3,.2,.87,.68,1.58,1.23,2.05,1.13,.98,2.32,1.08,2.35,1.47,.02,.18-.25,.42-.84,.54-.58,.12-1.5,.11-2.52-.36-1.03-.47-2.11-1.49-2.63-2.96-.26-.73-.39-1.57-.27-2.47,.12-.88,.47-1.74,1.05-2.49,.57-.75,1.4-1.35,2.34-1.61,.95-.27,1.89-.16,2.69,.17,.81,.34,1.42,.91,1.82,1.48,.33,.47,.53,.95,.67,1.4-.01-1.14-.3-2.55-1.1-3.88-.82-1.37-2.23-2.55-4.17-2.95-1.88-.43-4.23-.1-6.04,1.19-1.8,1.25-3.05,3.59-3.16,6.15-.07,1.28,.15,2.58,.68,3.77,.52,1.21,1.36,2.32,2.42,3.24,1.05,.93,2.33,1.64,3.7,2.08,1.36,.43,2.88,.57,4.41,.43,1.63-.14,3.25-.56,4.81-1.15,1.4-.52,2.76-1.17,4.08-1.87,2.8-1.52,5.49-3.28,8.3-4.71,2.78-1.44,5.77-2.54,8.7-2.82,2.91-.33,5.79,.09,8.1,1.27,1.14,.57,2.18,1.35,2.96,2.23,.29,.32,.53,.65,.76,.98,0-.06,.02-.12,.03-.19,.11-1.01,.21-2.49-.24-4.17Zm-.66,7.03c-.39-.72-.9-1.43-1.56-2.04-.65-.62-1.43-1.11-2.38-1.5-1.86-.79-4.18-1.01-6.62-.61-2.46,.37-4.95,1.37-7.51,2.8-2.57,1.4-5.18,3.2-8.16,4.88-1.53,.85-3.18,1.66-4.95,2.3,1.76,.52,3.12,1.23,4.02,1.86,.55,.39,.94,.74,1.18,1.02,.78-1.18,1.75-2.31,2.93-3.27,1.24-.99,2.66-1.82,4.21-2.38,3.11-1.16,6.69-1.36,10.17-.47,3.22,.83,6.24,2.65,8.62,5.17,.58-1.05,.85-2.01,.98-2.56,0-.01,0-.02,0-.03,.06-.34,.1-.71,.11-1.12,.02-1.16-.27-2.61-1.06-4.04Z"/><path class="cls-2" d="M4.28,44.24c-.13,.15-.26,.31-.39,.47-1.19,1.53-2.12,3.21-2.77,4.93v-5.4c.18,0,.36,0,.54,0h2.62Z"/><path class="cls-1" d="M29.25,114.83c.12,1.88-.05,3.81-.66,5.64-.59,1.84-1.59,3.47-2.82,4.82-2.45,2.71-5.76,4.39-9.13,4.73-1.68,.18-3.37,0-4.89-.46-1.53-.45-2.9-1.16-4.09-2.01-2.38-1.72-4.01-4-4.92-6.3-.86-2.32-1.06-4.63-.55-6.61,.25-.99,.7-1.88,1.28-2.57,.58-.7,1.33-1.17,2.01-1.41,1.39-.5,2.58-.23,3.22,.15,.65,.4,.8,.78,.73,.86-.09,.11-.41-.07-.99-.17-.57-.09-1.46-.07-2.38,.46-.46,.27-.88,.63-1.2,1.16-.33,.53-.57,1.18-.67,1.94-.22,1.51,.1,3.38,.93,5.19,.87,1.79,2.3,3.55,4.25,4.81,1.95,1.25,4.39,1.97,6.88,1.62,2.49-.33,5.02-1.69,6.84-3.76,1.86-2.07,2.73-4.83,2.51-7.85-.19-3.03-1.31-5.95-2.7-8.7-1.39-2.77-3.01-5.42-4.34-8.17-1.33-2.74-2.36-5.59-2.7-8.43-.34-2.85,.06-5.6,1.08-7.88,1-2.27,2.66-4.04,4.44-4.95,1.76-.94,3.49-1.17,4.85-1.08,1.37,.11,2.37,.54,2.95,.93,.59,.39,.8,.71,.74,.8-.14,.27-1.39-.52-3.69-.32-1.13,.12-2.51,.51-3.8,1.41-1.3,.87-2.43,2.3-3.1,4.18-.67,1.86-.87,4.13-.47,6.47,.4,2.37,1.38,4.83,2.7,7.34,1.32,2.52,2.99,5.11,4.53,8.05,1.52,2.93,2.91,6.31,3.16,10.1Zm-17.36-16.3c3.08,3,5.76,5.91,7.29,8.99,.76,1.52,1.21,3.04,1.26,4.44,.06,1.38-.3,2.67-.9,3.66-.61,.99-1.42,1.66-2.27,1.97-.86,.34-1.72,.35-2.4,.26-1.37-.22-2.04-.86-2.25-.68-.09,.07-.06,.34,.2,.74,.26,.39,.78,.91,1.63,1.3,.84,.36,2,.62,3.35,.36,1.36-.24,2.81-1.11,3.85-2.45,1.05-1.34,1.75-3.14,1.82-5.13,.09-1.97-.41-4-1.24-5.89-1.67-3.8-4.66-7.13-7.77-10.18-3.13-3.05-6.02-5.81-7.93-8.76-.96-1.45-1.69-2.94-2.13-4.38-.45-1.41-.59-2.83-.55-4.12,.07-2.6,.95-4.59,1.77-5.81,.83-1.23,1.52-1.82,1.37-2.06-.1-.19-1.08-.02-2.43,1.12-1.31,1.12-2.83,3.38-3.28,6.51-.23,1.55-.23,3.3,.19,5.14,.41,1.81,1.17,3.64,2.2,5.38,2.05,3.51,5.15,6.59,8.22,9.59Zm20.64-14.13c-.95,.48-2.11,.97-3.43,1.34-.67,.17-1.37,.35-2.11,.44-.18,.03-.37,.06-.56,.07l-.44,.04h-.02s-.04,.02,0-.05c.51-.54,.96-1.1,1.35-1.66,.78-1.11,1.3-2.22,1.63-3.17,.66-1.91,.61-3.16,.41-3.19-.25-.05-.62,1.07-1.52,2.7-.45,.81-1.04,1.75-1.82,2.69-.38,.48-.82,.95-1.3,1.41-.43,.45-1.1,.95-1.71,1.45-.68,.51-1.36,1.02-2.06,1.54,.84,.04,1.7,.09,2.57,.13,.72,.06,1.55,.02,2.34-.01,.09,0,.21,0,.28-.02l.17-.02,.32-.04c.21-.02,.42-.06,.63-.1,.83-.13,1.6-.36,2.33-.6,1.45-.51,2.66-1.18,3.6-1.84,1.88-1.35,2.65-2.58,2.48-2.73-.19-.2-1.26,.67-3.15,1.63Zm24.59-23.49c-1.44,2.9-3.51,5.31-5.9,6.94-2.4,1.7-4.91,2.45-6.98,3.2-2.09,.73-3.89,1.44-5.21,2.37-1.34,.93-2.32,2-2.9,2.98-1.19,1.99-.91,3.45-1.21,3.48-.1,.02-.34-.3-.46-1-.12-.69-.12-1.81,.39-3.1,.49-1.29,1.46-2.7,2.92-3.98,1.48-1.3,3.44-2.26,5.51-3.17,2.07-.92,4.29-1.77,6.14-3.25,1.9-1.44,3.53-3.51,4.64-5.94,1.11-2.43,1.67-5.28,1.31-8.1-.35-2.82-1.62-5.65-3.63-7.96-2-2.32-4.61-3.98-7.35-4.73-2.75-.75-5.65-.65-8.12,.18-2.5,.82-4.5,2.38-5.85,4.29-1.37,1.9-2.04,4.07-2.11,6.05-.07,1.98,.49,3.76,1.29,5.18,.8,1.41,1.79,2.48,2.71,3.2,1.86,1.46,3.26,1.76,3.2,2.06-.02,.12-.39,.18-1.08,.11-.69-.08-1.71-.34-2.89-.99-1.18-.64-2.51-1.7-3.65-3.28-1.13-1.56-2.06-3.74-2.15-6.26-.1-2.34,.5-4.91,1.88-7.25-1.05-.23-3.28-1.1-6.5-1.3-2.14-.12-4.72,.1-7.3,1.07-2.57,.94-5.09,2.76-7.05,5.24-1.89,2.45-3.03,5.26-3.36,7.92,.33-.13,.72-.29,1.14-.54,.58-.34,1.22-.83,1.84-1.47,.62-.64,1.22-1.46,1.83-2.37,.61-.92,1.2-1.84,1.82-2.65,.62-.81,1.27-1.5,1.9-2,1.26-1.01,2.31-1.18,2.39-.96,.11,.24-.62,.78-1.49,1.88-.44,.55-.92,1.24-1.42,2.04-.5,.8-1.04,1.74-1.68,2.71-.65,.97-1.37,1.88-2.2,2.58-.82,.7-1.7,1.18-2.49,1.43-.69,.22-1.29,.25-1.74,.21-.19,2.48,.2,4.79,.78,6.67,1.31,4.14,3.36,6.25,2.95,6.65-.16,.17-.88-.12-1.92-1.02-1.03-.89-2.34-2.44-3.43-4.68C.64,61.12-.16,58.16,.03,54.78c.16-3.37,1.48-7.02,3.86-10.07,2.07-2.64,4.77-4.61,7.55-5.72-1.79-.62-3.44-1.56-4.8-2.8-1.41-1.27-2.54-2.83-3.25-4.56-.72-1.74-.97-3.6-.82-5.35,.27-3.51,2.11-6.73,4.85-8.45,2.73-1.71,5.85-1.91,8.38-1.16,1.05,.31,2.01,.81,2.82,1.42-.06-.55-.08-1.15-.04-1.79,.1-2.05,.92-4.5,2.38-6.73,.36-.56,.76-1.11,1.18-1.66l.32-.41,.4-.48c.43-.48,.86-.97,1.31-1.45,.9-.96,1.82-1.88,2.78-2.86,.88-.89,1.78-1.8,2.69-2.72-.18,1.35-.37,2.71-.55,4.09-.06,.39-.07,.63-.1,.94l-.08,.89-.08,.89c-.03,.3-.07,.62-.03,.83l.06,.62,.11,.57c.04,.2,.05,.35,.11,.53,.09,.35,.16,.69,.26,1.05,.2,.7,.42,1.41,.65,2.11,.47,1.41,.96,2.84,1.3,4.3,.34,1.46,.53,2.96,.41,4.4-.06,.91-.28,1.77-.58,2.56,1.46-1.02,3.1-2.3,5.08-3.67,2.15-1.44,4.73-2.99,7.95-3.56,1.6-.28,3.26-.23,4.79,.18,1.53,.41,2.88,1.14,3.98,2.06,2.24,1.81,3.38,4.35,3.62,6.43,.26,2.11-.19,3.79-.65,4.83-.16,.35-.33,.63-.47,.84,.15,.28,.28,.56,.4,.84,.78,1.87,.89,3.68,.63,5.07-.27,1.4-.86,2.37-1.36,2.9-.5,.53-.85,.7-.93,.62-.1-.09,.06-.43,.32-1.02,.26-.59,.54-1.49,.56-2.65,.02-1.16-.26-2.61-1.06-4.04-.39-.72-.9-1.43-1.57-2.04-.65-.62-1.43-1.11-2.38-1.5-1.86-.79-4.18-1.01-6.62-.61-2.46,.37-4.95,1.37-7.51,2.8-2.57,1.4-5.18,3.2-8.16,4.87-1.53,.85-3.18,1.66-4.95,2.3,1.76,.52,3.12,1.22,4.02,1.86,.55,.39,.94,.74,1.18,1.02,.78-1.18,1.75-2.31,2.94-3.27,1.24-.99,2.66-1.82,4.21-2.38,3.1-1.16,6.69-1.36,10.17-.47,3.49,.9,6.75,2.96,9.2,5.81,2.46,2.84,4.03,6.36,4.42,9.94,.39,3.59-.4,7.06-1.83,9.96Zm-31.09-27.91c2.81-1.52,5.49-3.28,8.3-4.71,2.78-1.44,5.77-2.54,8.7-2.83,2.91-.33,5.79,.09,8.1,1.27,1.14,.57,2.18,1.35,2.96,2.23,.29,.32,.53,.65,.76,.98,0-.06,.02-.13,.03-.19,.12-1.01,.21-2.49-.23-4.18-.43-1.67-1.46-3.49-3.27-4.8-.89-.65-1.95-1.16-3.09-1.44-1.14-.27-2.39-.3-3.67-.07-2.57,.44-4.95,1.72-7.04,2.98-2.1,1.29-4.05,2.58-5.82,3.47-.95,.49-1.84,.85-2.63,1.12-1.01,.96-2.08,1.51-2.9,1.77-1.26,.39-2,.22-2.04,0-.06-.26,.54-.58,1.4-1.26l.04-.03s-.08-.05-.09-.08c-.03-.16,.31-.35,.91-.66,.65-.66,1.33-1.53,1.78-2.66,.31-.82,.49-1.75,.45-2.8-.03-1.04-.26-2.18-.64-3.41-.37-1.23-.9-2.55-1.43-4-.26-.73-.53-1.48-.77-2.28-.12-.4-.22-.82-.33-1.24-.06-.2-.09-.45-.13-.64v-.02s0,0,0-.02c.02-.05,.01-.07-.04-.07-.01,0-.03,0-.05,.01h-.01l-.08,.09-.16,.17-.31,.34c-.4,.46-.79,.91-1.13,1.36-1.4,1.81-2.24,3.59-2.63,5.22-.39,1.57-.35,2.86-.26,3.81,.14,.24,.27,.48,.38,.71,.87,1.88,.95,3.7,.71,5.08-.23,1.39-.78,2.37-1.23,2.93-.45,.57-.8,.76-.88,.69-.06-.05-.04-.19,.03-.4-.12-.12-.23-.35-.35-.68-.18-.48-.37-1.17-.73-1.84-.35-.65-.95-1.3-1.62-1.46-.72-.18-1.42,.03-1.99,.75-.28,.36-.47,.8-.56,1.23-.09,.41-.07,.86,.03,1.3,.2,.87,.68,1.58,1.23,2.05,1.13,.97,2.32,1.08,2.35,1.47,.02,.18-.25,.42-.84,.54-.58,.12-1.5,.11-2.53-.36-1.03-.47-2.11-1.49-2.63-2.96-.26-.72-.39-1.57-.27-2.47,.12-.88,.47-1.74,1.05-2.49,.57-.75,1.4-1.35,2.34-1.61,.95-.27,1.9-.16,2.69,.17,.81,.34,1.42,.91,1.82,1.48,.33,.47,.53,.95,.67,1.41-.01-1.15-.3-2.55-1.1-3.88-.82-1.37-2.23-2.55-4.17-2.95-1.88-.42-4.23-.1-6.04,1.19-1.8,1.25-3.05,3.59-3.16,6.15-.06,1.27,.15,2.58,.68,3.77,.52,1.2,1.36,2.32,2.41,3.24,1.05,.93,2.33,1.64,3.7,2.08,1.36,.43,2.88,.57,4.41,.43,3.09-.27,6.11-1.53,8.89-3.02Zm16.59,31.7c-1.74,1.88-2.84,3.08-2.67,3.27,.16,.18,1.54-.66,3.56-2.34,1-.85,2.15-1.93,3.28-3.3,1.12-1.37,2.2-3.05,2.94-5,.73-1.95,1.03-3.99,.82-5.84-.2-1.84-.85-3.41-1.62-4.56-.78-1.15-1.65-1.89-2.31-2.28-.66-.39-1.09-.47-1.15-.37-.16,.24,1.25,1.11,2.34,3.3,.53,1.08,.97,2.47,1.05,4.05,.09,1.57-.21,3.32-.86,5.05-1.32,3.49-3.7,6.13-5.4,8.02Zm-28.63-.07c.03,.14,.08,.27,.13,.38,.13,.27,.25,.43,.2,.5-.04,.06-.27,.04-.57-.21-.29-.25-.62-.78-.65-1.49-.02-.35,.03-.75,.19-1.16,.16-.39,.4-.77,.71-1.1,.62-.67,1.5-1.15,2.38-1.48,.88-.34,1.68-.59,2.34-.93,.66-.33,1.22-.72,1.68-1.07,.9-.72,1.39-1.29,1.54-1.2,.13,.08-.1,.85-.94,1.82-.04,.04-.09,.09-.13,.14-.04,.18-.1,.38-.17,.61-.14,.43-.33,.95-.63,1.51-.29,.57-.7,1.19-1.26,1.79-.56,.59-1.21,1.1-1.87,1.44-.66,.34-1.3,.51-1.81,.56-.51,.05-.9,0-1.13-.09Zm1.18-.32c.45-.1,1-.28,1.55-.59,.55-.31,1.1-.75,1.6-1.28,.98-1.06,1.52-2.19,1.9-3.01-.28,.24-.6,.47-.96,.69-.58,.36-1.24,.62-1.9,.88,.03,.03,.06,.06,.08,.09,.43,.59,0,1.63-.94,2.32-.95,.69-2.07,.78-2.5,.19h0c-.02,.08-.04,.16-.05,.24-.03,.21-.02,.4,0,.58,.25,0,.66,.03,1.23-.09Z"/></g></g></svg>