<svg xmlns="http://www.w3.org/2000/svg" viewBox="0 0 755.78 161.35">
	<defs>
		<style>
			.cls-1{fill:#000;}.cls-2{fill:#07c3e2;}.cls-3{fill:#ee097f;}.cls-4{fill:#f5fa15;}.cls-5{fill:#151011;}.cls-6{fill:#7ad5f9;}
		</style>
	</defs>
	<g id="Layer_2" data-name="Layer 2">
		<g id="Layer_1-2" data-name="Layer 1">
			<path class="cls-1" d="M84.42,71.49a39.58,39.58,0,0,1-3.33,16.13A41.1,41.1,0,0,1,72,100.76a43.42,43.42,0,0,1-13.42,8.81,41.6,41.6,0,0,1-16.31,3.23,42,42,0,0,1-16.36-3.23,43.3,43.3,0,0,1-13.47-8.81,41.22,41.22,0,0,1-9.1-13.09,41.07,41.07,0,0,1,0-32.4,41,41,0,0,1,9.1-13.15A42.82,42.82,0,0,1,42.26,30.18a42.11,42.11,0,0,1,16.31,3.18A42.54,42.54,0,0,1,72,42.17a41.71,41.71,0,0,1,9.1,13.15A39.46,39.46,0,0,1,84.42,71.49ZM69,71.49a25.54,25.54,0,0,0-2.1-10.3,27,27,0,0,0-5.73-8.47A27.75,27.75,0,0,0,52.63,47a25.64,25.64,0,0,0-10.37-2.14A25.9,25.9,0,0,0,31.79,47a27.75,27.75,0,0,0-8.53,5.77,27.17,27.17,0,0,0-5.74,8.47,26.33,26.33,0,0,0,0,20.56,26.85,26.85,0,0,0,5.74,8.5A27.6,27.6,0,0,0,31.79,96a25.74,25.74,0,0,0,10.47,2.14A25.47,25.47,0,0,0,52.63,96a27.6,27.6,0,0,0,8.53-5.78,26.66,26.66,0,0,0,5.73-8.5A25.73,25.73,0,0,0,69,71.49Z" />
			<path class="cls-1" d="M149.82,58.45a26.25,26.25,0,0,1-2.14,10.6,26.94,26.94,0,0,1-5.84,8.56,26.51,26.51,0,0,1-8.68,5.68,27.69,27.69,0,0,1-10.58,2H109.41v26H94V31.77H122.6a27.67,27.67,0,0,1,10.57,2,27,27,0,0,1,8.68,5.63,26.47,26.47,0,0,1,5.83,8.46A25.91,25.91,0,0,1,149.82,58.45Zm-15.43-.2a14.64,14.64,0,0,0-4.28-10.45,15.23,15.23,0,0,0-4.68-3.19,14.12,14.12,0,0,0-5.77-1.19H109.41V73.48h10.25a13.53,13.53,0,0,0,5.77-1.24,15,15,0,0,0,4.68-3.34,15.55,15.55,0,0,0,3.14-4.83A15,15,0,0,0,134.39,58.25Z" />
			<path class="cls-1" d="M211.84,45.51h-22v65.8H174.21V45.51h-22V31.77h59.63Z" />
			<path class="cls-1" d="M234.74,111.31H219.31V31.77h15.43Z" />
			<path class="cls-1" d="M326.62,111.31H311.49V58.15l-25.08,42.31L262.32,57.75v53.56H247.18V31.67H264.6l22.11,39.52L309.8,31.67h16.82Z" />
			<path class="cls-1" d="M354.5,111.31H339.07V31.77H354.5Z" />
			<path class="cls-1" d="M433.14,111.31H418L382.07,55.46v55.85H366.94V31.67h17.32l33.75,52v-52h15.13Z" />
			<path class="cls-1" d="M525.92,111.31H509l-7.37-15.93H463l-7.47,15.93H438.62l37.63-79.64h12ZM495.56,82.54,482.32,53.87,468.88,82.54Z" />
			<path class="cls-1" d="M584.56,90.4a19.47,19.47,0,0,1-1.94,8.52,22.58,22.58,0,0,1-5.43,7.11,26.94,26.94,0,0,1-8.26,4.93,29.11,29.11,0,0,1-10.55,1.84,66.7,66.7,0,0,1-9.31-.59,40.5,40.5,0,0,1-7.77-1.89,38.1,38.1,0,0,1-7-3.34,64.69,64.69,0,0,1-6.91-4.93l11-11a31.4,31.4,0,0,0,9.35,5.63,29.48,29.48,0,0,0,10,1.64,12.72,12.72,0,0,0,4.13-.65,11.66,11.66,0,0,0,3.39-1.74,8.38,8.38,0,0,0,2.28-2.59,6.47,6.47,0,0,0,.85-3.28,7.87,7.87,0,0,0-.7-3.39,8.1,8.1,0,0,0-2.48-2.88,25.29,25.29,0,0,0-5-2.84Q557,79.46,552,77.66A75.7,75.7,0,0,1,543.59,74a29.65,29.65,0,0,1-7.07-4.93,22.47,22.47,0,0,1-4.87-6.77,21.15,21.15,0,0,1-1.85-9.16,21.44,21.44,0,0,1,2.05-9.35,22,22,0,0,1,5.57-7.32,26.13,26.13,0,0,1,8.26-4.73,30,30,0,0,1,10.21-1.69,43.42,43.42,0,0,1,15.43,2.39,33.46,33.46,0,0,1,11.15,7L571.72,50.29a21.58,21.58,0,0,0-6.67-4.43,22.34,22.34,0,0,0-8.67-1.55,12.6,12.6,0,0,0-4.23.7,11.34,11.34,0,0,0-3.33,1.84,9.15,9.15,0,0,0-2.24,2.69,6.58,6.58,0,0,0-.85,3.23,7.39,7.39,0,0,0,.8,3.44,9.3,9.3,0,0,0,2.69,3,26.88,26.88,0,0,0,5,2.88c2.09,1,4.7,2,7.82,3.14a59.29,59.29,0,0,1,10.25,4.58,28.53,28.53,0,0,1,7,5.47,19.56,19.56,0,0,1,4,6.72A25.69,25.69,0,0,1,584.56,90.4Z" />
			<path class="cls-1" d="M647.67,45.51h-22v65.8H610V45.51H588V31.77h59.63Z" />
			<path class="cls-1" d="M670.57,111.31H655.14V31.77h15.43Z" />
			<path class="cls-1" d="M755.78,97a44.28,44.28,0,0,1-14.48,11.54,41.11,41.11,0,0,1-18.77,4.28,43.1,43.1,0,0,1-30.13-12,41.27,41.27,0,0,1-9.06-13.09,41.18,41.18,0,0,1,0-32.35,41.45,41.45,0,0,1,22.57-22,43.41,43.41,0,0,1,16.62-3.18,41.24,41.24,0,0,1,18.77,4.28,43.36,43.36,0,0,1,14.18,11.15l-10.65,11a27.77,27.77,0,0,0-9.51-8.51,25.84,25.84,0,0,0-12.79-3.24A26.22,26.22,0,0,0,712,47a28,28,0,0,0-8.61,5.77,27.43,27.43,0,0,0-5.83,8.47,25.75,25.75,0,0,0,0,20.51,27.5,27.5,0,0,0,5.83,8.46A28,28,0,0,0,712,95.93a26.05,26.05,0,0,0,10.5,2.14,25.27,25.27,0,0,0,13-3.33A29.6,29.6,0,0,0,745,85.93Z" />
			<circle class="cls-2" cx="9.76" cy="9.76" r="9.76" />
			<circle class="cls-3" cx="32.75" cy="9.76" r="9.76" />
			<circle class="cls-4" cx="55.73" cy="9.76" r="9.76" />
			<circle class="cls-5" cx="78.72" cy="9.76" r="9.76" />
			<rect class="cls-6" x="577.91" y="121.08" width="177.87" height="40.26" />
			<path class="cls-1" d="M613.48,154.56l0-16-7.86,13.19h-2.78L595,138.89v15.67h-5.8V127.87h5.11l10,16.59,9.83-16.59h5.07l.08,26.69Z" />
			<path class="cls-1" d="M652,149.6v5H631.33V127.87H651.5v5h-14v5.79h12.39v4.81H637.47v6.17Z" />
			<path class="cls-1" d="M662.63,127.87h12.13a17,17,0,0,1,7.68,1.66,12.45,12.45,0,0,1,5.19,4.67,14.23,14.23,0,0,1,0,14,12.39,12.39,0,0,1-5.19,4.67,17,17,0,0,1-7.68,1.66H662.63Zm11.82,21.62a9,9,0,0,0,6.39-2.23,8.87,8.87,0,0,0,0-12.09,9,9,0,0,0-6.39-2.23h-5.64v16.55Z" />
			<path class="cls-1" d="M699.85,127.87H706v26.69h-6.18Z" />
			<path class="cls-1" d="M735.65,148.84H723.26l-2.36,5.72h-6.33l11.89-26.69h6.1l11.94,26.69H738Zm-1.94-4.69-4.23-10.22-4.24,10.22Z" />
		</g>
	</g>
</svg>
